<?xml version="1.0" encoding="utf-8"?>
<!-- Generator: Adobe Illustrator 20.0.0, SVG Export Plug-In . SVG Version: 6.00 Build 0)  -->
<svg version="1.1" id="volunteer" xmlns="http://www.w3.org/2000/svg" xmlns:xlink="http://www.w3.org/1999/xlink" x="0px" y="0px"
	 viewBox="0 0 191.2 191.2" style="enable-background:new 0 0 191.2 191.2;" xml:space="preserve">
<style type="text/css">
	.st0{fill:#629AD4;}
	.st1{opacity:0.5;fill:#629AD4;enable-background:new    ;}
</style>
<g>
	<path class="st0" d="M95.6,0C43,0,0,43,0,95.6s43,95.6,95.6,95.6s95.6-43,95.6-95.6S148.2,0,95.6,0z M95.6,180.3
		c-46.6,0-84.7-38.1-84.7-84.7S49,10.9,95.6,10.9s84.7,38.1,84.7,84.7S142.2,180.3,95.6,180.3z"/>
	<path class="st1" d="M67,114.3l-15.5,25.8l25.8-15.5l-1.8-8.1C75.5,116.4,67,114.3,67,114.3z M75.5,76.9l1.8-8.5L51.5,52.9L67,78.7
		L75.5,76.9z M115.4,116.4l-2.1,8.1l25.4,15.5l-15.5-25.8C123.1,114.3,115.4,116.4,115.4,116.4z M123.1,78.7l15.5-25.8l-25.4,15.5
		l2.1,8.5C115.4,76.9,123.1,78.7,123.1,78.7z"/>
	<path class="st0" d="M109.7,81.9l-14.5-60l-14.5,60l-60,14.5l60,14.5l14.5,60l14.5-60l60-14.5L109.7,81.9z M95.3,103.7
		c-4.2,0-7.4-3.2-7.4-7.4c0-4.2,3.2-7.4,7.4-7.4s7.4,3.2,7.4,7.4C102.3,100.6,99.1,103.7,95.3,103.7z"/>
</g>
</svg>
